<svg xmlns="http://www.w3.org/2000/svg" viewBox="0 0 64 64" x="0px" y="0px"><title>17-ovary</title><g data-name="17-ovary"><path d="M38.7,37.49h-2c0-5.27,2.45-8.71,4.61-11.74,1.61-2.25,3-4.2,3-6.44a12.31,12.31,0,1,0-24.61,0c0,4.1,1.73,6.2,3.57,8.42,2,2.41,4,4.9,4,9.76h-2c0-4.14-1.74-6.25-3.59-8.49-2-2.4-4-4.88-4-9.7a14.31,14.31,0,1,1,28.61,0c0,2.88-1.64,5.17-3.37,7.6C40.85,29.84,38.7,32.86,38.7,37.49Z"></path><path d="M25.82,45c-2.87-2.88-4.93-9.14-1.13-12.94l1.41,1.41c-2.78,2.78-1.22,7.77,1.13,10.11Z"></path><path d="M38.06,45l-1.41-1.41c2.35-2.35,3.91-7.33,1.13-10.11L39.19,32C43,35.82,40.94,42.09,38.06,45Z"></path><path d="M36.35,59H27.53a1,1,0,0,1-1-.83l-1-5.67a1,1,0,0,1,0-.17,10.57,10.57,0,0,0-1.17-3.86c-1-2.35-2.18-5-.42-7.48l1.63,1.16c-1,1.45-.45,3.05.63,5.53a12.36,12.36,0,0,1,1.33,4.57L28.37,57h7.14l.84-4.76a12.39,12.39,0,0,1,1.33-4.57c1.08-2.48,1.66-4.09.62-5.54L39.93,41c1.78,2.48.62,5.15-.41,7.5a10.6,10.6,0,0,0-1.17,3.86,1,1,0,0,1,0,.17l-1,5.67A1,1,0,0,1,36.35,59Z"></path><path d="M52.16,29.71A4.35,4.35,0,0,1,49,28.47a4.61,4.61,0,0,1-1.15-4.16,8.6,8.6,0,0,1,6.65-6.65,4.6,4.6,0,0,1,4.15,1.15c2,2,1.52,5.76-1.19,8.47a8.16,8.16,0,0,1-4.31,2.34A6,6,0,0,1,52.16,29.71Zm3.34-10.12a3.9,3.9,0,0,0-.66.06,6.61,6.61,0,0,0-5,5,2.39,2.39,0,0,0,3,3,6.14,6.14,0,0,0,3.23-1.78c1.85-1.85,2.4-4.44,1.19-5.64A2.41,2.41,0,0,0,55.51,19.58Z"></path><path d="M57.4,19.66,56.32,18a3.12,3.12,0,0,0,1.33-1.79,1.65,1.65,0,0,0-.54-1.31c-.82-.89-2.37-.17-4.47.94-1.43.76-2.79,1.48-4,1.3-2.06-.31-5-1.82-5.29-2.54l1.85-.75-.93.37.67-.74a10.85,10.85,0,0,0,4,1.67A7.28,7.28,0,0,0,51.7,14c2.09-1.1,4.95-2.62,6.88-.52a3.56,3.56,0,0,1,1.06,2.92A5.07,5.07,0,0,1,57.4,19.66Z"></path><path d="M59.42,22.39,57.89,21.1s2.94-3.51,3.8-4.75c.64-.92.58-4-2.47-7-1.71-1.68-4.34-.28-7.36,1.58a10.55,10.55,0,0,1-3.19,1.58c-2.5.43-7.08-1.39-7.59-1.6L41.84,9c1.25.51,4.85,1.77,6.49,1.48a10.94,10.94,0,0,0,2.48-1.31C53.53,7.5,57.65,5,60.62,7.88c3.8,3.74,3.86,7.95,2.71,9.61C62.42,18.81,59.54,22.24,59.42,22.39Z"></path><path d="M11.84,29.71a6,6,0,0,1-1-.09,8.16,8.16,0,0,1-4.31-2.34c-2.71-2.71-3.23-6.43-1.19-8.47a4.61,4.61,0,0,1,4.15-1.15A8.16,8.16,0,0,1,13.8,20a8.15,8.15,0,0,1,2.34,4.32A4.61,4.61,0,0,1,15,28.47,4.35,4.35,0,0,1,11.84,29.71ZM8.49,19.58a2.41,2.41,0,0,0-1.75.64C5.54,21.43,6.08,24,7.94,25.87a6.14,6.14,0,0,0,3.23,1.78,2.67,2.67,0,0,0,2.41-.59,2.68,2.68,0,0,0,.59-2.41,6.15,6.15,0,0,0-1.78-3.23,6.14,6.14,0,0,0-3.23-1.78A3.89,3.89,0,0,0,8.49,19.58Z"></path><path d="M6.6,19.66a5.07,5.07,0,0,1-2.23-3.21,3.56,3.56,0,0,1,1.06-2.92c1.93-2.1,4.79-.58,6.87.52A7.07,7.07,0,0,0,15,15.14a10.85,10.85,0,0,0,4-1.67l.55.69,1,.42c-.29.72-3.23,2.24-5.29,2.54-1.19.17-2.54-.54-4-1.3C9.27,14.7,7.72,14,6.9,14.88a1.65,1.65,0,0,0-.54,1.31A3.12,3.12,0,0,0,7.69,18Z"></path><path d="M4.58,22.39c-.12-.15-3-3.58-3.91-4.9C-.48,15.83-.42,11.62,3.38,7.88c3-2.92,7.09-.38,9.81,1.31a10.94,10.94,0,0,0,2.48,1.31c1.46.26,4.76-.77,6.49-1.48l.75,1.85c-.51.21-5.08,2-7.59,1.6a10.55,10.55,0,0,1-3.19-1.58C9.13,9,6.49,7.62,4.79,9.3c-3,3-3.11,6.12-2.47,7,.86,1.24,3.77,4.72,3.8,4.75Z"></path><path d="M24.47,25.39a6.78,6.78,0,0,1-1.39-2.63,12.74,12.74,0,0,1,1.5-10.58l1.67,1.09A10.72,10.72,0,0,0,25,22.17a4.89,4.89,0,0,0,1,1.88Z"></path><rect x="43.93" y="22.64" width="5.13" height="2"></rect><rect x="14.58" y="22.64" width="5.13" height="2"></rect></g></svg>